<svg xmlns="http://www.w3.org/2000/svg" xmlns:xlink="http://www.w3.org/1999/xlink" width="142" height="142" viewBox="0 0 142 142">
  <defs>
    <clipPath id="clip-path">
      <rect id="mask" width="142" height="142" transform="translate(60 199)" fill="#fff" stroke="#707070" stroke-width="1"/>
    </clipPath>
  </defs>
  <g id="favicon" transform="translate(-60 -199)" clip-path="url(#clip-path)">
    <rect id="bg" width="142" height="142" rx="26" transform="translate(60 199)"/>
    <path id="logo" d="M41.689,115.006c-27.1,0-32.182-15.462-31.013-33.057H32.551c0,9.714.438,17.866,12.466,17.866a10.279,10.279,0,0,0,11.021-11.53c0-18.276-44.072-19.411-44.072-49.654,0-15.894,7.831-28.549,34.5-28.549,21.311,0,31.888,9.287,30.459,30.531H55.606c0-7.6-1.307-15.34-10.135-15.34A10.046,10.046,0,0,0,34.157,36.1c0,19.272,44.066,17.578,44.066,49.516,0,26.3-19.854,29.4-36.551,29.4" transform="translate(86.628 207.454)" fill="#fff" fill-rule="evenodd"/>
  </g>
</svg>
