<svg xmlns="http://www.w3.org/2000/svg" width="56.824" height="56.824" viewBox="0 0 56.824 56.824">
  <g id="Yotube_icon" data-name="Yotube icon" opacity="0.85">
    <rect id="사각형_827" data-name="사각형 827" width="43.789" height="31.964" transform="translate(7.708 12.177)" fill="#fff"/>
    <path id="패스_2367" data-name="패스 2367" d="M34.235,26.708l-7.541-4.243a1.414,1.414,0,0,0-2.1,1.231v8.487a1.414,1.414,0,0,0,2.1,1.231l7.541-4.243a1.414,1.414,0,0,0,0-2.462Z" transform="translate(-0.327 0.492)" fill="#ff3c2f"/>
    <path id="패스_2368" data-name="패스 2368" d="M44.512,0h-32.2A12.312,12.312,0,0,0,0,12.312v32.2A12.312,12.312,0,0,0,12.312,56.824h32.2A12.312,12.312,0,0,0,56.824,44.512v-32.2A12.312,12.312,0,0,0,44.512,0Zm.947,37.9A4.271,4.271,0,0,1,41.2,42.159H15.627A4.271,4.271,0,0,1,11.365,37.9V18.956a4.271,4.271,0,0,1,4.262-4.262H41.2a4.271,4.271,0,0,1,4.262,4.262Z" transform="translate(0)" fill="#ff3c2f"/>
  </g>
</svg>
